<?xml version="1.0" encoding="UTF-8" standalone="no"?>
<svg width="100%"  height="100%" viewBox="0 0 900 900" xml:space="preserve"
   xmlns="http://www.w3.org/2000/svg">
   
  <desc>
    Reworked Coffee Cup Animation by yamachem http://openclipart.org/detail/224843/morphingcoffeesmilanimation
    Used script to modify Bezier curves instead of using SMIL animation
    
    by Jay Nick
    steamcoded.org
  </desc>

  <script type="application/x-javascript"><![CDATA[
    StringArt = new function()
    {
      var x = 60;
      var xinc = -10;

      window.addEventListener("load", function(e) {animate(); }, false);
      
      function animate()
      {
        if(x >= 60)  xinc = -10;
        if(x <= -60) xinc = 10;

        x += xinc;

        var path = "M0,"+Number(40-x/2)+"q"+x+",50,0,"+Number(100+x/4)+"t0,"+Number(110-x/2);

        document.getElementById("s1").setAttribute("d",path);
        document.getElementById("s2").setAttribute("d",path);
        document.getElementById("s3").setAttribute("d",path);

        window.setTimeout(animate,150);
      }
    }();
  ]]>
</script>

  <g transform="translate(250,20)" style="fill:none;stroke:black;stroke-width:30px;stroke-linecap:round;">
    <path id="s1" d="M0,0q60,50,0,125t0,125" />
    <path id="s2" d="M0,0q60,50,0,125t0,125" transform="translate(180,0)" />
    <path id="s3" d="M0,0q60,50,0,125t0,125" transform="translate(360,0)" />
  </g>

  <g transform="translate(30,200)" style="fill:black;">
    <path d="m 88.7,133.2 c 4.8,109.6 66.91,388.6 138.29,458.3 l 182.4,0 182.5,0 c 29.2,-29.1 41.5,-116.6 71.5,-192.0 12.2,-30.5 48.1,-167.6 54.6,-165.3 146.5,-28.2 94.4,201.9 -63.8,190.4 -19.5,37.9 -34.1,76.9 -35.2,76.1 290.3,-80.2 282.5,-287.7 115.97,-313.4 -8.8,-13.48 8.1,-41.6 3.5,-55.9 l -329.1,-0.9 z M -19.99,597.9 c 22.17,51.17 102.2,80.6 146.5,89.8 l 294.1,0 294.03,0 c 44.3,-9.19 122.1,-36.2 144.29,-87.4 l -412.1,4.7 z" />
  </g>
</svg>
